<?xml version="1.0" encoding="UTF-8"?>
<svg id="Layer_1" data-name="Layer 1" xmlns="http://www.w3.org/2000/svg" viewBox="0 0 170.08 56.69">
  <defs>
    <style>
      .cls-1 {
        fill: none;
        stroke: #fff;
        stroke-miterlimit: 10;
        stroke-width: .5px;
      }

      .cls-2 {
        fill: #fff;
      }
    </style>
  </defs>
  <g>
    <g>
      <path class="cls-2" d="M3.21,24.46v-5.68h1.95c.67,0,1.18.12,1.51.37.34.25.5.63.5,1.16,0,.25-.05.46-.16.65-.11.19-.26.33-.46.44s-.43.16-.7.16v-.05c.48,0,.86.13,1.14.39.28.26.42.6.42,1.01,0,.52-.17.91-.5,1.17s-.81.39-1.43.39h-2.27ZM3.9,21.24h1.26c.42,0,.74-.08.96-.24s.34-.38.34-.66c0-.3-.11-.52-.32-.67-.22-.15-.54-.22-.97-.22h-1.26v1.78ZM3.9,23.79h1.58c.39,0,.69-.08.9-.24.21-.16.32-.39.32-.69s-.11-.53-.32-.7c-.21-.17-.51-.25-.9-.25h-1.58v1.88Z"/>
      <path class="cls-2" d="M8.59,24.46v-5.68h.69v5.68h-.69Z"/>
      <path class="cls-2" d="M11.56,24.46v-5.01h-1.77v-.67h4.22v.67h-1.77v5.01h-.69Z"/>
      <path class="cls-2" d="M16.05,24.46v-5.01h-1.77v-.67h4.22v.67h-1.77v5.01h-.69Z"/>
      <path class="cls-2" d="M19.1,24.46v-5.68h3.57v.67h-2.88v1.83h2.78v.66h-2.78v1.85h2.94v.67h-3.63Z"/>
      <path class="cls-2" d="M23.84,24.46v-5.68h2.15c.4,0,.74.07,1.03.21.29.14.51.34.67.6s.24.56.24.92c0,.26-.06.48-.18.68-.12.2-.27.36-.46.48-.19.12-.38.18-.58.19l-.05-.07c.35,0,.62.08.82.24.2.16.32.42.35.77l.16,1.67h-.7l-.14-1.6c-.02-.23-.11-.41-.25-.52-.15-.11-.39-.17-.72-.17h-1.65v2.29h-.69ZM24.53,21.5h1.55c.35,0,.62-.09.82-.26.2-.18.3-.43.3-.75s-.1-.58-.31-.76c-.21-.18-.51-.27-.9-.27h-1.46v2.05Z"/>
      <path class="cls-2" d="M29.22,24.46v-5.68h.98l2.81,4.99v-4.99h.69v5.68h-1.02l-2.76-4.9v4.9h-.69Z"/>
      <path class="cls-2" d="M35,24.46v-5.68h3.57v.67h-2.88v1.83h2.78v.66h-2.78v1.85h2.94v.67h-3.63Z"/>
      <path class="cls-2" d="M41.78,24.59c-.44,0-.82-.08-1.14-.25-.33-.17-.58-.39-.77-.68-.19-.29-.3-.63-.33-1.01l.72-.05c.04.28.12.52.25.72.13.2.3.35.52.45.22.1.48.15.78.15.27,0,.49-.03.68-.1.19-.07.33-.17.43-.3s.15-.3.15-.49c0-.18-.04-.33-.12-.47-.08-.14-.24-.26-.47-.38-.23-.11-.57-.23-1.03-.34-.44-.11-.79-.23-1.04-.37-.26-.13-.45-.3-.56-.49s-.17-.43-.17-.71c0-.32.08-.6.23-.84s.37-.43.65-.57.62-.2,1.01-.2c.42,0,.77.08,1.07.24.3.16.54.37.71.64.18.27.29.58.33.93l-.72.05c-.03-.23-.1-.43-.22-.61s-.27-.32-.47-.42c-.2-.1-.44-.15-.72-.15-.35,0-.63.08-.84.25s-.31.39-.31.66c0,.18.04.32.12.44.08.11.23.22.44.3.21.09.52.18.92.28.47.12.85.26,1.13.42.28.16.48.35.6.56s.18.46.18.73c0,.33-.09.62-.26.86-.17.24-.41.43-.7.56-.3.13-.64.2-1.03.2Z"/>
      <path class="cls-2" d="M46.9,24.59c-.44,0-.82-.08-1.14-.25-.33-.17-.58-.39-.77-.68-.19-.29-.3-.63-.33-1.01l.72-.05c.04.28.12.52.25.72.13.2.3.35.52.45.22.1.48.15.78.15.27,0,.49-.03.68-.1.19-.07.33-.17.43-.3s.15-.3.15-.49c0-.18-.04-.33-.12-.47-.08-.14-.24-.26-.47-.38-.23-.11-.57-.23-1.03-.34-.44-.11-.79-.23-1.04-.37-.26-.13-.45-.3-.56-.49s-.17-.43-.17-.71c0-.32.08-.6.23-.84s.37-.43.65-.57.62-.2,1.01-.2c.42,0,.77.08,1.07.24.3.16.54.37.71.64.18.27.29.58.33.93l-.72.05c-.03-.23-.1-.43-.22-.61s-.27-.32-.47-.42c-.2-.1-.44-.15-.72-.15-.35,0-.63.08-.84.25s-.31.39-.31.66c0,.18.04.32.12.44.08.11.23.22.44.3.21.09.52.18.92.28.47.12.85.26,1.13.42.28.16.48.35.6.56s.18.46.18.73c0,.33-.09.62-.26.86-.17.24-.41.43-.7.56-.3.13-.64.2-1.03.2Z"/>
    </g>
    <g>
      <path class="cls-2" d="M2.64,11.77l2.05-5.68h.93l2.05,5.68h-.75l-.57-1.62h-2.38l-.57,1.62h-.75ZM4.19,9.48h1.92l-.96-2.79-.96,2.79Z"/>
      <path class="cls-2" d="M8.4,11.77v-5.68h2.15c.4,0,.74.07,1.03.21.29.14.51.34.67.6s.24.56.24.92c0,.26-.06.48-.18.68-.12.2-.27.36-.46.48-.19.12-.38.18-.58.19l-.05-.07c.35,0,.62.08.82.24.2.16.32.42.35.77l.16,1.67h-.7l-.14-1.6c-.02-.23-.11-.41-.25-.52-.15-.11-.39-.17-.72-.17h-1.65v2.29h-.69ZM9.08,8.81h1.55c.35,0,.62-.09.82-.26.2-.18.3-.43.3-.75s-.1-.58-.31-.76c-.21-.18-.51-.27-.9-.27h-1.46v2.05Z"/>
      <path class="cls-2" d="M15.87,11.9c-.54,0-1-.12-1.39-.36s-.68-.58-.89-1.02c-.21-.44-.31-.97-.31-1.58s.1-1.14.31-1.59.51-.79.89-1.03c.39-.24.85-.36,1.39-.36s1.01.12,1.4.36c.39.24.68.58.89,1.03s.31.97.31,1.59-.1,1.14-.31,1.58c-.21.44-.51.78-.89,1.02s-.85.36-1.4.36ZM15.87,11.23c.39,0,.73-.09,1.01-.27.28-.18.49-.44.64-.78s.22-.75.22-1.23-.07-.89-.22-1.24c-.15-.34-.36-.61-.64-.79-.28-.18-.62-.28-1.01-.28s-.72.09-1,.28c-.28.18-.5.45-.64.79-.15.34-.22.76-.22,1.24s.07.89.22,1.23c.15.34.36.6.64.78.28.18.61.27,1,.27Z"/>
      <path class="cls-2" d="M19.45,11.77v-5.68h.96l1.82,4.93,1.81-4.93h.96v5.68h-.69v-4.4l-1.62,4.4h-.92l-1.62-4.4v4.4h-.69Z"/>
      <path class="cls-2" d="M25.81,11.77l2.05-5.68h.93l2.05,5.68h-.75l-.57-1.62h-2.38l-.57,1.62h-.75ZM27.36,9.48h1.92l-.96-2.79-.96,2.79Z"/>
    </g>
    <g>
      <path class="cls-2" d="M2.64,49.84l2.05-5.68h.93l2.05,5.68h-.75l-.57-1.62h-2.38l-.57,1.62h-.75ZM4.19,47.55h1.92l-.96-2.79-.96,2.79Z"/>
      <path class="cls-2" d="M10.27,49.97c-.44,0-.82-.08-1.14-.25-.33-.17-.58-.39-.77-.68s-.3-.63-.33-1.01l.72-.05c.04.28.12.52.25.72.13.2.3.35.52.45.22.1.48.15.78.15.27,0,.49-.03.68-.1.19-.07.33-.17.43-.3.1-.13.15-.3.15-.49,0-.18-.04-.33-.12-.47-.08-.14-.24-.26-.47-.38-.23-.11-.57-.23-1.03-.34-.44-.11-.79-.23-1.04-.37-.26-.13-.45-.3-.56-.49-.11-.19-.17-.43-.17-.71,0-.32.08-.6.23-.84.15-.24.37-.43.65-.57.28-.14.62-.2,1.01-.2.42,0,.77.08,1.07.24.3.16.54.37.71.64.18.27.29.58.33.93l-.72.05c-.03-.23-.1-.43-.22-.61s-.27-.32-.47-.42c-.2-.1-.44-.15-.72-.15-.35,0-.63.08-.84.25s-.31.39-.31.66c0,.18.04.32.12.44.08.12.23.22.44.3.21.09.52.18.92.28.47.12.85.26,1.13.42.28.16.48.35.6.56.12.21.18.46.18.73,0,.33-.09.62-.26.86-.17.24-.41.43-.7.56-.3.13-.64.2-1.03.2Z"/>
      <path class="cls-2" d="M14.24,49.84v-5.01h-1.77v-.67h4.22v.67h-1.77v5.01h-.69Z"/>
      <path class="cls-2" d="M17.29,49.84v-5.68h2.15c.4,0,.74.07,1.03.21s.51.34.67.6.24.56.24.92c0,.26-.06.48-.18.68-.12.2-.27.36-.46.48-.19.12-.38.18-.58.19l-.05-.07c.35,0,.62.08.82.24.2.16.32.42.35.77l.16,1.67h-.7l-.14-1.6c-.02-.23-.11-.41-.25-.52-.15-.11-.39-.17-.72-.17h-1.65v2.29h-.69ZM17.98,46.88h1.55c.35,0,.62-.09.82-.26s.3-.43.3-.75-.1-.58-.31-.76c-.21-.18-.51-.27-.9-.27h-1.46v2.05Z"/>
      <path class="cls-2" d="M22.67,49.84v-5.68h.69v5.68h-.69Z"/>
      <path class="cls-2" d="M24.67,49.84v-5.68h.98l2.81,4.99v-4.99h.69v5.68h-1.02l-2.76-4.9v4.9h-.69Z"/>
      <path class="cls-2" d="M32.66,49.97c-.53,0-.99-.13-1.37-.38-.38-.26-.67-.61-.87-1.05-.2-.45-.3-.95-.3-1.52s.1-1.08.3-1.53c.2-.45.49-.8.88-1.06s.84-.39,1.37-.39c.45,0,.84.08,1.15.25s.56.39.74.67c.18.28.31.6.38.95l-.72.05c-.07-.37-.22-.67-.46-.9-.24-.23-.6-.35-1.09-.35-.43,0-.78.11-1.05.32-.27.21-.47.49-.59.84-.13.35-.19.73-.19,1.14,0,.43.06.82.19,1.16s.33.62.6.82.62.3,1.04.3c.34,0,.63-.08.87-.23.25-.15.43-.36.57-.61s.2-.53.21-.83h-1.63v-.66h2.27v2.87h-.51l-.05-1.31.1.11c-.06.26-.19.48-.37.68-.18.2-.4.36-.65.47-.25.12-.53.17-.82.17Z"/>
      <path class="cls-2" d="M36.1,49.84v-5.68h3.57v.67h-2.88v1.83h2.78v.66h-2.78v1.85h2.94v.67h-3.63Z"/>
      <path class="cls-2" d="M40.84,49.84v-5.68h.98l2.81,4.99v-4.99h.69v5.68h-1.02l-2.76-4.9v4.9h-.69Z"/>
      <path class="cls-2" d="M48.85,49.97c-.51,0-.95-.12-1.34-.36-.38-.24-.68-.58-.9-1.02-.21-.44-.32-.97-.32-1.58s.11-1.14.32-1.59c.21-.45.51-.79.9-1.03.38-.24.83-.36,1.34-.36.69,0,1.22.17,1.6.52.38.35.63.82.74,1.42l-.73.05c-.08-.41-.25-.72-.51-.96-.26-.23-.63-.35-1.1-.35-.36,0-.68.09-.96.28-.27.18-.49.45-.64.79-.15.34-.23.76-.23,1.24s.08.89.23,1.23c.15.34.37.6.64.78.27.18.59.27.96.27.5,0,.88-.13,1.15-.39s.44-.61.51-1.05l.73.05c-.07.41-.21.77-.41,1.08s-.47.55-.8.72c-.33.17-.73.26-1.18.26Z"/>
      <path class="cls-2" d="M53.37,49.84v-2.32l-2.01-3.36h.82l1.54,2.66,1.54-2.66h.82l-2.01,3.36v2.32h-.69Z"/>
    </g>
    <g>
      <path class="cls-2" d="M5.24,37.28c-.44,0-.82-.09-1.14-.26-.32-.17-.57-.42-.74-.73s-.26-.69-.26-1.12v-3.7h.69v3.7c0,.46.13.81.38,1.06.25.25.61.38,1.08.38s.81-.13,1.07-.38c.25-.25.38-.61.38-1.06v-3.7h.69v3.7c0,.43-.09.81-.26,1.12-.17.32-.42.56-.74.73-.32.17-.7.26-1.14.26Z"/>
      <path class="cls-2" d="M8.84,37.15v-5.68h.96l1.82,4.93,1.81-4.93h.96v5.68h-.69v-4.4l-1.62,4.4h-.92l-1.62-4.4v4.4h-.69Z"/>
      <path class="cls-2" d="M15.2,37.15l2.05-5.68h.93l2.05,5.68h-.75l-.57-1.62h-2.38l-.57,1.62h-.75ZM16.76,34.86h1.92l-.96-2.79-.96,2.79Z"/>
      <path class="cls-2" d="M20.96,37.15v-5.68h.96l1.82,4.93,1.81-4.93h.96v5.68h-.69v-4.4l-1.62,4.4h-.92l-1.62-4.4v4.4h-.69Z"/>
      <path class="cls-2" d="M27.82,37.15v-5.68h.69v5.68h-.69Z"/>
    </g>
  </g>
  <g>
    <circle class="cls-2" cx="165.8" cy="9.31" r="1.8"/>
    <g>
      <line class="cls-1" x1="66.22" y1="7.51" x2="66.22" y2="11.11"/>
      <line class="cls-1" x1="116.01" y1="7.51" x2="116.01" y2="11.11"/>
      <line class="cls-1" x1="165.8" y1="7.51" x2="165.8" y2="11.11"/>
      <line class="cls-1" x1="66.22" y1="9.31" x2="165.8" y2="9.31"/>
    </g>
    <circle class="cls-2" cx="66.22" cy="47.38" r="1.8"/>
    <g>
      <line class="cls-1" x1="66.22" y1="45.58" x2="66.22" y2="49.18"/>
      <line class="cls-1" x1="116.01" y1="45.58" x2="116.01" y2="49.18"/>
      <line class="cls-1" x1="165.8" y1="45.58" x2="165.8" y2="49.18"/>
      <line class="cls-1" x1="66.22" y1="47.38" x2="165.8" y2="47.38"/>
    </g>
    <circle class="cls-2" cx="141.63" cy="34.69" r="1.8"/>
    <g>
      <line class="cls-1" x1="66.22" y1="32.89" x2="66.22" y2="36.49"/>
      <line class="cls-1" x1="116.01" y1="32.89" x2="116.01" y2="36.49"/>
      <line class="cls-1" x1="165.8" y1="32.89" x2="165.8" y2="36.49"/>
      <line class="cls-1" x1="66.22" y1="34.69" x2="165.8" y2="34.69"/>
    </g>
    <circle class="cls-2" cx="90.66" cy="22" r="1.8"/>
    <g>
      <line class="cls-1" x1="165.8" y1="20.2" x2="165.8" y2="23.8"/>
      <line class="cls-1" x1="116.01" y1="20.2" x2="116.01" y2="23.8"/>
      <line class="cls-1" x1="66.22" y1="20.2" x2="66.22" y2="23.8"/>
      <line class="cls-1" x1="165.8" y1="22" x2="66.22" y2="22"/>
    </g>
  </g>
</svg>