<?xml version="1.0" encoding="UTF-8"?>
<svg id="Layer_1" data-name="Layer 1" xmlns="http://www.w3.org/2000/svg" viewBox="0 0 85.04 85.04">
  <defs>
    <style>
      .cls-1 {
        fill: #fff;
      }
    </style>
  </defs>
  <path class="cls-1" d="M28.64,31.89c-.19-.73-.59-1.79-1.54-1.69-.48.05-.95.15-1.35.43-.21.15-.36.34-.49.57-.11.2-.17.45-.4.54-.15.06-.33.04-.47-.05-.12-.09-.19-.22-.26-.35-.19-.37-.36-.62-.81-.68-.37-.06-.74.04-1.03.28-.87.7-1.12,2.09-1.28,3.12-.22,1.42-.24,2.87-.12,4.3.05.55.12,1.1.24,1.64.11.47.52,1.56,1.04.78.54-.81.69-1.66.66-2.62-.02-.6-.08-1.2-.11-1.8-.01-.28-.02-.57-.01-.85.01-.31-.06-.68,0-.97.03-.17.16-.34.33-.36.2-.03.38.14.46.32.09.18.11.39.19.57.16.37.55.62.95.62.4,0,.79-.26.95-.62.07-.17.1-.36.14-.54.04-.18.09-.37.2-.52s.3-.25.49-.21c.05.01.1.03.14.07.5.46-.15,2.82-.21,3.3-.09.67-.1,1.38.13,2.03.11.32.28.61.51.87.27.3.52.49.95.37.51-.15.74-.73.87-1.2.14-.51.2-1.04.24-1.57.1-1.33.05-2.67-.11-3.99-.07-.59-.16-1.19-.31-1.76Z"/>
  <path class="cls-1" d="M44.7,34.14s1.24-1.27,1.34-1.4c.4-.53.65-1.18.61-1.85,0-.02,0-.05-.02-.06-.01-.01-.04-.02-.06-.02-.7-.11-1.32.12-1.85.59-.23.21-.46.44-.72.63-.13.1-.27.18-.43.24-.04.02-.46.11-.46.12.49-2.17-1.51-3.74-1.91-.94-.22,1.55-1.24,8.43.59,8.74,1.63.27,1.39-3.33,1.33-4.28,0,.09.28.33.33.4.27.32.54.64.8.96.6.72,1.2,1.43,1.8,2.15.31-.08.62-.27.78-.55.44-.77-.09-1.82-.47-2.5-.45-.8-1.02-1.58-1.68-2.22Z"/>
  <path class="cls-1" d="M38.62,37.44c-.38-.02-.8.07-1.12-.14-.21-.14-.32-.38-.36-.62-.04-.24-.02-.49,0-.74.09-1.04.1-2.09.1-3.14,0-.5,0-1,0-1.5,0-.33.1-.87-.15-1.14-.29-.31-1.21-.21-1.45.11-.17.24-.23.57-.28.85-.25,1.45-.71,5.97-.32,7.17.25.75.82,1.31,1.58,1.52.52.15,1.08.13,1.62,0,.5-.11.99-.32,1.38-.66.2-.17.38-.4.38-.67,0-.65-.85-1.01-1.39-1.04Z"/>
  <path class="cls-1" d="M31.01,29.72c-.34,1.7-1.82,10.58.97,10.57l.98-.6v-8.6c0-.54-1.26-1.82-1.95-1.37Z"/>
  <path class="cls-1" d="M69.34,32.52c-.03-.17-.05-.35-.06-.53-.12-3.7.7-11.35-.08-14.39-.63-2.47-7.47-5.95-9.5-7.72-.16-2.31.81-4.74-.23-6.98-7.99-.14-16.03-.11-23.98.73-1.75.18-8.03.79-9.17,1.38-1.71.87.42,4.51.16,6.07-3.62,4.19-7.67,8.13-10.57,12.88l-.55,14.86s0,0,0,0v39.68c0,.17,1.4,3.02,1.57,3.12,1.88,1.17,5.29.21,7.21.18,8.26-.11,16.11-.78,24.27-1.17,1.16-.06,2.06.63,3.41.33.97-.21,14.87-10.21,16.29-11.48.29-.26,1.59-1.81,1.59-1.93v-10.56l-.35-24.48h0ZM64.34,16.6c.38.35.84.35.66,1.1l-11.33,3.52,5.28-8.6c.39-.09,4.73,3.38,5.39,3.98ZM28.29,6.8c9.5-1.49,19.39-1.21,28.9-1.83.6.98.85,3.09-.61,3.35-4.71.86-9.76.52-14.48.77-4.58.24-9.23.92-13.86.8l.05-3.09ZM18.87,79.48c.23-1.41-.32-2.73-.41-4.09-.77-11.95,0-25.92.42-37.93.13-3.57-.39-7.21.43-10.71l30.04-2.01c-.6,8.32-.51,16.85-.41,25.23.01.92.41,1.78.42,2.7.13,8.54-.57,17.18.76,25.62l-31.27,1.18ZM49.87,21.23c-10.23.52-20.49,1.09-30.6,2.73l9.27-11.64c9.35-1.49,18.85-.43,28.25-1.26l-6.92,10.17ZM66.48,66.69c-.19.67-7.72,6.56-8.95,7.47-.57.42-3.86,3.02-4.26,2.58-.81-17.25-2.33-34.47-1.12-51.75l14.41-5.33c-.9,15.66.56,31.32-.08,47.03Z"/>
</svg>