<?xml version="1.0" encoding="UTF-8"?>
<svg id="Layer_1" data-name="Layer 1" xmlns="http://www.w3.org/2000/svg" viewBox="0 0 170.08 56.69">
  <defs>
    <style>
      .cls-1, .cls-2 {
        fill: #eceb73;
      }

      .cls-2 {
        font-family: Geist-Regular, Geist;
        font-size: 8px;
        font-variation-settings: 'wght' 400;
      }

      .cls-3 {
        fill: none;
        stroke: #eceb73;
        stroke-miterlimit: 10;
        stroke-width: .5px;
      }
    </style>
  </defs>
  <text class="cls-2" transform="translate(3.36 24.46)"><tspan x="0" y="0">BITTERNESS</tspan></text>
  <text class="cls-2" transform="translate(3.36 11.77)"><tspan x="0" y="0">AROMA</tspan></text>
  <text class="cls-2" transform="translate(3.36 49.84)"><tspan x="0" y="0">ASTRINGENCY</tspan></text>
  <text class="cls-2" transform="translate(3.36 37.15)"><tspan x="0" y="0">UMAMI</tspan></text>
  <g>
    <circle class="cls-1" cx="116.92" cy="9.31" r="1.8"/>
    <g>
      <line class="cls-3" x1="67.13" y1="7.51" x2="67.13" y2="11.11"/>
      <line class="cls-3" x1="116.92" y1="7.51" x2="116.92" y2="11.11"/>
      <line class="cls-3" x1="166.71" y1="7.51" x2="166.71" y2="11.11"/>
      <line class="cls-3" x1="67.13" y1="9.31" x2="166.71" y2="9.31"/>
    </g>
    <circle class="cls-1" cx="67.13" cy="47.38" r="1.8"/>
    <g>
      <line class="cls-3" x1="67.13" y1="45.58" x2="67.13" y2="49.18"/>
      <line class="cls-3" x1="116.92" y1="45.58" x2="116.92" y2="49.18"/>
      <line class="cls-3" x1="166.71" y1="45.58" x2="166.71" y2="49.18"/>
      <line class="cls-3" x1="67.13" y1="47.38" x2="166.71" y2="47.38"/>
    </g>
    <circle class="cls-1" cx="92.45" cy="34.69" r="1.8"/>
    <g>
      <line class="cls-3" x1="67.13" y1="32.89" x2="67.13" y2="36.49"/>
      <line class="cls-3" x1="116.92" y1="32.89" x2="116.92" y2="36.49"/>
      <line class="cls-3" x1="166.71" y1="32.89" x2="166.71" y2="36.49"/>
      <line class="cls-3" x1="67.13" y1="34.69" x2="166.71" y2="34.69"/>
    </g>
    <circle class="cls-1" cx="67.13" cy="22" r="1.8"/>
    <g>
      <line class="cls-3" x1="166.71" y1="20.2" x2="166.71" y2="23.8"/>
      <line class="cls-3" x1="116.92" y1="20.2" x2="116.92" y2="23.8"/>
      <line class="cls-3" x1="67.13" y1="20.2" x2="67.13" y2="23.8"/>
      <line class="cls-3" x1="166.71" y1="22" x2="67.13" y2="22"/>
    </g>
  </g>
</svg>